<?xml version="1.0" encoding="utf-8"?>
<!-- Generator: Adobe Illustrator 25.4.1, SVG Export Plug-In . SVG Version: 6.00 Build 0)  -->
<svg version="1.1" id="Layer_1" xmlns="http://www.w3.org/2000/svg" xmlns:xlink="http://www.w3.org/1999/xlink" x="0px" y="0px"
	 viewBox="0 0 24 24" style="enable-background:new 0 0 24 24;" xml:space="preserve">
<style type="text/css">
	.st0{fill:none;}
</style>
<rect y="0" class="st0" width="24" height="24"/>
<path d="M19.3,16.9c0.4-0.7,0.7-1.5,0.7-2.4c0-2.5-2-4.5-4.5-4.5S11,12,11,14.5s2,4.5,4.5,4.5c0.9,0,1.7-0.3,2.4-0.7l3.2,3.2
	l1.4-1.4L19.3,16.9z M15.5,17c-1.4,0-2.5-1.1-2.5-2.5s1.1-2.5,2.5-2.5s2.5,1.1,2.5,2.5S16.9,17,15.5,17z M12,20v2
	C6.5,22,2,17.5,2,12S6.5,2,12,2c4.8,0,8.9,3.4,9.8,8h-2.1c-0.6-2.5-2.4-4.5-4.7-5.4V5c0,1.1-0.9,2-2,2h-2v2c0,0.6-0.4,1-1,1H8v2h2v3
	H9l-4.8-4.8C4.1,10.8,4,11.4,4,12C4,16.4,7.6,20,12,20z"/>
</svg>
