<?xml version="1.0" encoding="utf-8"?>
<!-- Generator: Adobe Illustrator 25.4.1, SVG Export Plug-In . SVG Version: 6.00 Build 0)  -->
<svg version="1.1" id="Capa_1" xmlns="http://www.w3.org/2000/svg" xmlns:xlink="http://www.w3.org/1999/xlink" x="0px" y="0px"
	 viewBox="0 0 374.5 374.5" style="enable-background:new 0 0 374.5 374.5;" xml:space="preserve">
<style type="text/css">
	.st0{fill:#FFFFFF;}
</style>
<g>
	<path class="st0" d="M295,101.7c6,0,11.6-2.3,15.8-6.5c8.7-8.7,8.7-22.9,0-31.6c-4.2-4.2-9.8-6.5-15.8-6.5c-6,0-11.6,2.3-15.8,6.5
		c-8.7,8.7-8.7,22.9,0,31.6C283.5,99.4,289.1,101.7,295,101.7z M284.9,69.3c2.7-2.7,6.3-4.2,10.1-4.2c3.8,0,7.4,1.5,10.1,4.2
		c5.6,5.6,5.6,14.7,0,20.2c-2.7,2.7-6.3,4.2-10.1,4.2c-3.8,0-7.4-1.5-10.1-4.2C279.3,84,279.3,74.9,284.9,69.3z"/>
	<path class="st0" d="M373.3,318.4L268.2,213.3c-1.6-1.6-4.1-1.6-5.7,0l-12.5,12.5l-8.3-8.3l30.9-30.9
		c15.9-15.9,21.4-39.2,14.9-60.2c5.7,1.8,11.8,2.7,17.8,2.7c16,0,31.1-6.2,42.4-17.6c11.3-11.3,17.6-26.4,17.6-42.4
		c0-7.7-1.5-15.2-4.2-22.2l10.5-10.5c0.8-0.8,1.2-1.8,1.2-2.8s-0.4-2.1-1.2-2.8L343.7,2.8c-1.6-1.6-4.1-1.6-5.7,0l-10.5,10.5
		c-7-2.8-14.4-4.2-22.2-4.2c-16,0-31.1,6.2-42.4,17.6c-15.9,15.9-21.4,39.2-14.9,60.2c-5.7-1.8-11.8-2.7-17.8-2.7
		c-16,0-31.1,6.2-42.4,17.6L157,132.7l-8.3-8.3l12.5-12.5c1.6-1.6,1.6-4.1,0-5.7L56,1.2C55.3,0.4,54.3,0,53.2,0s-2.1,0.4-2.8,1.2
		L1.2,50.4c-1.6,1.6-1.6,4.1,0,5.7l105.1,105.1c0.8,0.8,1.8,1.2,2.8,1.2s2.1-0.4,2.8-1.2l12.5-12.5l8.3,8.3l-8.1,8.1c0,0,0,0,0,0
		c0,0,0,0,0,0l-24.7,24.7c-1.6,1.6-1.6,4.1,0,5.7l79.1,79.1c0.8,0.8,1.8,1.2,2.8,1.2s2.1-0.4,2.8-1.2l32.9-32.9l8.3,8.3l-12.5,12.5
		c-0.8,0.8-1.2,1.8-1.2,2.8s0.4,2.1,1.2,2.8l105.1,105.1c0.8,0.8,1.8,1.2,2.8,1.2s2-0.4,2.8-1.2l49.2-49.2c0.8-0.8,1.2-1.8,1.2-2.8
		S374,319.2,373.3,318.4z M274.4,317.9l43.6-43.6l20.9,20.9l-43.6,43.6L274.4,317.9z M247.8,291.3l43.6-43.6l20.9,20.9l-43.6,43.6
		L247.8,291.3z M206.5,241.4L133,167.9l43.3-43.3l73.5,73.5L206.5,241.4z M342.1,32.4c9.3,9.3,14.6,21.5,15.2,34.6l-49.7-49.7
		C320.6,17.7,332.8,23.1,342.1,32.4z M340.9,11.3l22.3,22.3l-5.7,5.7c-2.6-4.6-5.8-8.8-9.7-12.6s-8.1-7-12.6-9.7L340.9,11.3z
		 M268.6,32.4c7.8-7.8,17.6-12.8,28.3-14.5l59.7,59.7c-1.7,10.7-6.7,20.5-14.5,28.3c-9.8,9.8-22.8,15.2-36.7,15.2
		c-8,0-16-1.9-23.1-5.4l-23.4-23.4C248.9,72.2,252.8,48.2,268.6,32.4z M252.4,97.2l24.9,24.9c8.2,17.3,6.1,37.5-5,52.7l-72.6-72.6
		c8.8-6.5,19.4-10,30.6-10C237.9,92.2,245.6,93.9,252.4,97.2z M193.6,107.4C193.6,107.4,193.6,107.4,193.6,107.4l73.5,73.5
		c0,0,0,0,0,0l-11.6,11.6L182,119L193.6,107.4z M62.2,105.8l43.6-43.6l20.9,20.9l-43.6,43.6L62.2,105.8z M35.6,79.2l43.6-43.6
		l20.9,20.9l-43.6,43.6L35.6,79.2z M53.2,9.7l20.3,20.3L29.9,73.5L9.7,53.2L53.2,9.7z M109.1,152.6l-20.3-20.3l43.6-43.6l20.3,20.3
		l-31.1,31.1c0,0,0,0,0,0s0,0,0,0L109.1,152.6z M130,143l13-13l8.3,8.3l-13,13L130,143z M181.8,266.1l-73.5-73.5l19.1-19.1
		l73.5,73.5L181.8,266.1z M223.1,236.1l13-13l8.3,8.3l-13,13L223.1,236.1z M265.4,221.8l20.3,20.3l-43.6,43.6l-20.3-20.3
		L265.4,221.8z M321.2,364.8L301,344.5l43.6-43.6l20.3,20.3L321.2,364.8z"/>
</g>
</svg>
